<svg xmlns="http://www.w3.org/2000/svg" xmlns:xlink="http://www.w3.org/1999/xlink" width="1080" zoomAndPan="magnify" viewBox="0 0 810 809.999993" height="1080" preserveAspectRatio="xMidYMid meet" version="1.0"><defs><clipPath id="e523b8a332"><path d="M 69.71875 70.847656 L 739.152344 70.847656 L 739.152344 740.28125 L 69.71875 740.28125 Z M 69.71875 70.847656 " clip-rule="nonzero"/></clipPath><clipPath id="dc4b86f5dc"><path d="M 404.4375 70.847656 C 219.578125 70.847656 69.71875 220.703125 69.71875 405.5625 C 69.71875 590.421875 219.578125 740.28125 404.4375 740.28125 C 589.296875 740.28125 739.152344 590.421875 739.152344 405.5625 C 739.152344 220.703125 589.296875 70.847656 404.4375 70.847656 Z M 404.4375 70.847656 " clip-rule="nonzero"/></clipPath><clipPath id="e80d853edc"><path d="M 0.71875 0.847656 L 670.152344 0.847656 L 670.152344 670.28125 L 0.71875 670.28125 Z M 0.71875 0.847656 " clip-rule="nonzero"/></clipPath><clipPath id="7f3b687d49"><path d="M 335.4375 0.847656 C 150.578125 0.847656 0.71875 150.703125 0.71875 335.5625 C 0.71875 520.421875 150.578125 670.28125 335.4375 670.28125 C 520.296875 670.28125 670.152344 520.421875 670.152344 335.5625 C 670.152344 150.703125 520.296875 0.847656 335.4375 0.847656 Z M 335.4375 0.847656 " clip-rule="nonzero"/></clipPath><clipPath id="032c8bccea"><rect x="0" width="671" y="0" height="671"/></clipPath><clipPath id="b49f1fec9a"><path d="M 81 92.28125 L 729 92.28125 L 729 740.28125 L 81 740.28125 Z M 81 92.28125 " clip-rule="nonzero"/></clipPath><clipPath id="ec7382b8be"><path d="M 180 502 L 630 502 L 630 740.28125 L 180 740.28125 Z M 180 502 " clip-rule="nonzero"/></clipPath></defs><g clip-path="url(#e523b8a332)"><g clip-path="url(#dc4b86f5dc)"><g transform="matrix(1, 0, 0, 1, 69, 70)"><g clip-path="url(#032c8bccea)"><g clip-path="url(#e80d853edc)"><g clip-path="url(#7f3b687d49)"><path fill="#0a2c5c" d="M 0.71875 0.847656 L 670.152344 0.847656 L 670.152344 670.28125 L 0.71875 670.28125 Z M 0.71875 0.847656 " fill-opacity="1" fill-rule="nonzero"/></g></g></g></g></g></g><g clip-path="url(#b49f1fec9a)"><path fill="#ffffff" d="M 729 416.28125 C 729 421.898438 728.890625 427.40625 728.566406 432.914062 C 728.566406 433.019531 728.566406 433.128906 728.566406 433.128906 C 728.351562 437.449219 728.027344 441.660156 727.597656 445.875 C 727.597656 447.167969 727.378906 448.574219 727.273438 449.871094 C 727.164062 450.949219 727.054688 452.136719 726.839844 453.21875 C 725.867188 462.828125 724.355469 472.226562 722.410156 481.511719 C 721.332031 486.804688 720.144531 492.097656 718.738281 497.171875 C 717.445312 502.355469 716.039062 507.542969 714.417969 512.617188 C 713.015625 516.9375 711.613281 521.367188 709.992188 525.578125 C 709.667969 526.765625 709.234375 527.84375 708.804688 529.035156 C 707.183594 533.570312 705.347656 537.996094 703.511719 542.316406 C 702.324219 545.234375 701.027344 548.148438 699.515625 551.066406 C 698.4375 553.875 697.140625 556.574219 695.734375 559.273438 C 693.574219 563.703125 691.308594 568.128906 688.824219 572.449219 C 683.316406 582.601562 677.160156 592.429688 670.570312 601.824219 C 668.085938 605.390625 665.605469 608.84375 663.011719 612.195312 C 659.773438 616.40625 656.53125 620.507812 653.074219 624.503906 C 650.160156 628.070312 647.027344 631.523438 643.894531 634.980469 C 642.382812 636.710938 640.765625 638.4375 639.035156 640.058594 C 636.769531 642.648438 634.285156 645.027344 631.800781 647.507812 L 631.691406 647.617188 C 631.476562 647.832031 631.152344 648.050781 630.9375 648.265625 C 630.394531 648.804688 629.855469 649.34375 629.316406 649.777344 C 626.398438 652.695312 623.484375 655.5 620.460938 658.09375 C 616.894531 661.332031 613.222656 664.464844 609.445312 667.597656 C 608.363281 668.460938 607.175781 669.324219 605.988281 670.296875 C 603.070312 672.671875 600.046875 674.941406 596.914062 677.210938 C 593.242188 680.015625 589.464844 682.609375 585.574219 685.203125 C 582.335938 687.46875 579.097656 689.519531 575.855469 691.464844 C 573.265625 693.195312 570.5625 694.8125 567.753906 696.324219 C 564.40625 698.378906 560.953125 700.320312 557.496094 702.15625 C 552.960938 704.535156 548.421875 706.910156 543.671875 709.070312 C 537.730469 711.984375 531.683594 714.578125 525.527344 716.953125 C 522.070312 718.464844 518.507812 719.761719 514.945312 721.058594 C 510.082031 722.894531 505.117188 724.511719 500.039062 726.027344 C 495.394531 727.539062 490.644531 728.832031 485.890625 730.019531 C 482.976562 730.886719 480.058594 731.535156 477.035156 732.074219 C 474.550781 732.828125 471.960938 733.371094 469.367188 733.800781 C 462.996094 735.207031 456.625 736.285156 450.035156 737.042969 C 445.933594 737.6875 441.828125 738.230469 437.617188 738.660156 C 426.925781 739.742188 416.015625 740.28125 405 740.28125 C 393.984375 740.28125 383.074219 739.742188 372.382812 738.660156 C 368.171875 738.230469 364.066406 737.6875 359.964844 737.042969 C 353.375 736.285156 347.003906 735.207031 340.632812 733.800781 C 338.039062 733.371094 335.449219 732.828125 332.964844 732.074219 C 329.941406 731.535156 327.023438 730.886719 324.109375 730.019531 C 319.355469 728.832031 314.605469 727.539062 309.960938 726.027344 C 304.882812 724.511719 299.914062 722.894531 295.054688 721.058594 C 291.492188 719.761719 287.929688 718.464844 284.472656 716.953125 C 278.316406 714.578125 272.269531 711.984375 266.328125 709.070312 C 261.574219 706.910156 257.039062 704.535156 252.503906 702.15625 C 249.046875 700.320312 245.699219 698.378906 242.351562 696.324219 C 239.542969 694.8125 236.84375 693.195312 234.144531 691.464844 C 230.902344 689.519531 227.664062 687.46875 224.421875 685.203125 C 220.535156 682.609375 216.753906 680.015625 213.082031 677.210938 C 209.953125 674.941406 206.929688 672.671875 204.011719 670.296875 C 202.824219 669.324219 201.636719 668.460938 200.554688 667.597656 C 196.777344 664.464844 193.105469 661.332031 189.539062 658.09375 C 186.515625 655.5 183.601562 652.695312 180.683594 649.777344 C 180.144531 649.34375 179.605469 648.804688 179.0625 648.265625 C 178.847656 648.050781 178.523438 647.832031 178.308594 647.617188 L 178.199219 647.507812 C 175.714844 645.027344 173.230469 642.648438 170.964844 640.058594 C 169.234375 638.4375 167.617188 636.710938 166.105469 634.980469 C 162.972656 631.527344 159.839844 628.070312 156.921875 624.503906 C 153.46875 620.507812 150.226562 616.40625 146.988281 612.195312 C 144.394531 608.84375 141.910156 605.390625 139.429688 601.824219 C 132.839844 592.429688 126.683594 582.601562 121.175781 572.449219 C 118.691406 568.128906 116.421875 563.703125 114.265625 559.273438 C 112.859375 556.574219 111.5625 553.875 110.484375 551.066406 C 108.972656 548.148438 107.675781 545.234375 106.488281 542.316406 C 104.652344 537.996094 102.816406 533.570312 101.195312 529.035156 C 100.765625 527.84375 100.332031 526.765625 100.007812 525.578125 C 98.386719 521.367188 96.984375 516.9375 95.578125 512.617188 C 93.960938 507.542969 92.554688 502.355469 91.261719 497.171875 C 89.855469 492.097656 88.667969 486.804688 87.585938 481.511719 C 85.644531 472.226562 84.132812 462.828125 83.160156 453.21875 C 82.945312 452.136719 82.835938 450.949219 82.726562 449.871094 C 82.621094 448.574219 82.402344 447.167969 82.402344 445.875 C 81.972656 441.660156 81.648438 437.449219 81.433594 433.128906 C 81.433594 433.128906 81.433594 433.019531 81.433594 432.914062 C 81.109375 427.40625 81 421.898438 81 416.28125 C 81 237.324219 226.042969 92.28125 405 92.28125 C 583.957031 92.28125 729 237.324219 729 416.28125 Z M 729 416.28125 " fill-opacity="1" fill-rule="nonzero"/><path fill="#ffffff" d="M 729 416.28125 C 729 421.898438 728.890625 427.40625 728.566406 432.914062 C 728.566406 433.019531 728.566406 433.128906 728.566406 433.128906 C 728.351562 437.449219 728.027344 441.660156 727.597656 445.875 C 727.597656 447.167969 727.378906 448.574219 727.273438 449.871094 C 727.164062 450.949219 727.054688 452.136719 726.839844 453.21875 C 725.867188 462.828125 724.355469 472.226562 722.410156 481.511719 C 721.332031 486.804688 720.144531 492.097656 718.738281 497.171875 C 717.445312 502.355469 716.039062 507.542969 714.417969 512.617188 C 713.015625 516.9375 711.613281 521.367188 709.992188 525.578125 C 709.667969 526.765625 709.234375 527.84375 708.804688 529.035156 C 707.183594 533.570312 705.347656 537.996094 703.511719 542.316406 C 702.324219 545.234375 701.027344 548.148438 699.515625 551.066406 C 698.4375 553.875 697.140625 556.574219 695.734375 559.273438 C 693.574219 563.703125 691.308594 568.128906 688.824219 572.449219 C 683.316406 582.601562 677.160156 592.429688 670.570312 601.824219 C 668.085938 605.390625 665.605469 608.84375 663.011719 612.195312 C 659.773438 616.40625 656.53125 620.507812 653.074219 624.503906 C 650.160156 628.070312 647.027344 631.523438 643.894531 634.980469 C 642.382812 636.710938 640.765625 638.4375 639.035156 640.058594 C 636.769531 642.648438 634.285156 645.027344 631.800781 647.507812 L 631.691406 647.617188 C 631.476562 647.832031 631.152344 648.050781 630.9375 648.265625 C 630.394531 648.804688 629.855469 649.34375 629.316406 649.777344 C 626.398438 652.695312 623.484375 655.5 620.460938 658.09375 C 616.894531 661.332031 613.222656 664.464844 609.445312 667.597656 C 608.363281 668.460938 607.175781 669.324219 605.988281 670.296875 C 603.070312 672.671875 600.046875 674.941406 596.914062 677.210938 C 593.242188 680.015625 589.464844 682.609375 585.574219 685.203125 C 582.335938 687.46875 579.097656 689.519531 575.855469 691.464844 C 573.265625 693.195312 570.5625 694.8125 567.753906 696.324219 C 564.40625 698.378906 560.953125 700.320312 557.496094 702.15625 C 552.960938 704.535156 548.421875 706.910156 543.671875 709.070312 C 537.730469 711.984375 531.683594 714.578125 525.527344 716.953125 C 522.070312 718.464844 518.507812 719.761719 514.945312 721.058594 C 510.082031 722.894531 505.117188 724.511719 500.039062 726.027344 C 495.394531 727.539062 490.644531 728.832031 485.890625 730.019531 C 482.976562 730.886719 480.058594 731.535156 477.035156 732.074219 C 474.550781 732.828125 471.960938 733.371094 469.367188 733.800781 C 462.996094 735.207031 456.625 736.285156 450.035156 737.042969 C 445.933594 737.6875 441.828125 738.230469 437.617188 738.660156 C 426.925781 739.742188 416.015625 740.28125 405 740.28125 C 393.984375 740.28125 383.074219 739.742188 372.382812 738.660156 C 368.171875 738.230469 364.066406 737.6875 359.964844 737.042969 C 353.375 736.285156 347.003906 735.207031 340.632812 733.800781 C 338.039062 733.371094 335.449219 732.828125 332.964844 732.074219 C 329.941406 731.535156 327.023438 730.886719 324.109375 730.019531 C 319.355469 728.832031 314.605469 727.539062 309.960938 726.027344 C 304.882812 724.511719 299.914062 722.894531 295.054688 721.058594 C 291.492188 719.761719 287.929688 718.464844 284.472656 716.953125 C 278.316406 714.578125 272.269531 711.984375 266.328125 709.070312 C 261.574219 706.910156 257.039062 704.535156 252.503906 702.15625 C 249.046875 700.320312 245.699219 698.378906 242.351562 696.324219 C 239.542969 694.8125 236.84375 693.195312 234.144531 691.464844 C 230.902344 689.519531 227.664062 687.46875 224.421875 685.203125 C 220.535156 682.609375 216.753906 680.015625 213.082031 677.210938 C 209.953125 674.941406 206.929688 672.671875 204.011719 670.296875 C 202.824219 669.324219 201.636719 668.460938 200.554688 667.597656 C 196.777344 664.464844 193.105469 661.332031 189.539062 658.09375 C 186.515625 655.5 183.601562 652.695312 180.683594 649.777344 C 180.144531 649.34375 179.605469 648.804688 179.0625 648.265625 C 178.847656 648.050781 178.523438 647.832031 178.308594 647.617188 L 178.199219 647.507812 C 175.714844 645.027344 173.230469 642.648438 170.964844 640.058594 C 169.234375 638.4375 167.617188 636.710938 166.105469 634.980469 C 162.972656 631.527344 159.839844 628.070312 156.921875 624.503906 C 153.46875 620.507812 150.226562 616.40625 146.988281 612.195312 C 144.394531 608.84375 141.910156 605.390625 139.429688 601.824219 C 132.839844 592.429688 126.683594 582.601562 121.175781 572.449219 C 118.691406 568.128906 116.421875 563.703125 114.265625 559.273438 C 112.859375 556.574219 111.5625 553.875 110.484375 551.066406 C 108.972656 548.148438 107.675781 545.234375 106.488281 542.316406 C 104.652344 537.996094 102.816406 533.570312 101.195312 529.035156 C 100.765625 527.84375 100.332031 526.765625 100.007812 525.578125 C 98.386719 521.367188 96.984375 516.9375 95.578125 512.617188 C 93.960938 507.542969 92.554688 502.355469 91.261719 497.171875 C 89.855469 492.097656 88.667969 486.804688 87.585938 481.511719 C 85.644531 472.226562 84.132812 462.828125 83.160156 453.21875 C 82.945312 452.136719 82.835938 450.949219 82.726562 449.871094 C 82.621094 448.574219 82.402344 447.167969 82.402344 445.875 C 81.972656 441.660156 81.648438 437.449219 81.433594 433.128906 C 81.433594 433.128906 81.433594 433.019531 81.433594 432.914062 C 81.109375 427.40625 81 421.898438 81 416.28125 C 81 237.324219 226.042969 92.28125 405 92.28125 C 583.957031 92.28125 729 237.324219 729 416.28125 Z M 729 416.28125 " fill-opacity="1" fill-rule="nonzero"/></g><path fill="#0a2c5c" d="M 523.800781 340.679688 C 523.800781 342.625 523.753906 344.570312 523.65625 346.511719 C 523.5625 348.453125 523.417969 350.390625 523.226562 352.324219 C 523.039062 354.261719 522.800781 356.191406 522.515625 358.113281 C 522.230469 360.035156 521.898438 361.949219 521.515625 363.859375 C 521.136719 365.765625 520.710938 367.660156 520.238281 369.546875 C 519.765625 371.433594 519.25 373.304688 518.683594 375.167969 C 518.121094 377.027344 517.511719 378.875 516.855469 380.703125 C 516.199219 382.535156 515.5 384.347656 514.757812 386.144531 C 514.011719 387.941406 513.226562 389.71875 512.394531 391.476562 C 511.5625 393.234375 510.6875 394.96875 509.773438 396.683594 C 508.855469 398.398438 507.898438 400.089844 506.898438 401.757812 C 505.898438 403.425781 504.859375 405.066406 503.777344 406.683594 C 502.699219 408.300781 501.578125 409.890625 500.421875 411.449219 C 499.261719 413.011719 498.066406 414.542969 496.832031 416.046875 C 495.601562 417.550781 494.332031 419.023438 493.023438 420.460938 C 491.71875 421.902344 490.378906 423.3125 489.003906 424.6875 C 487.628906 426.058594 486.222656 427.402344 484.78125 428.707031 C 483.339844 430.011719 481.867188 431.28125 480.367188 432.515625 C 478.863281 433.75 477.332031 434.945312 475.769531 436.101562 C 474.207031 437.261719 472.617188 438.378906 471 439.460938 C 469.386719 440.539062 467.742188 441.578125 466.074219 442.578125 C 464.40625 443.578125 462.714844 444.535156 461 445.453125 C 459.289062 446.371094 457.550781 447.242188 455.792969 448.074219 C 454.035156 448.90625 452.257812 449.695312 450.460938 450.4375 C 448.667969 451.183594 446.851562 451.882812 445.023438 452.535156 C 443.191406 453.191406 441.347656 453.800781 439.484375 454.367188 C 437.625 454.929688 435.753906 455.449219 433.867188 455.921875 C 431.980469 456.394531 430.082031 456.820312 428.175781 457.199219 C 426.269531 457.578125 424.355469 457.910156 422.429688 458.195312 C 420.507812 458.480469 418.578125 458.71875 416.644531 458.910156 C 414.710938 459.101562 412.769531 459.242188 410.828125 459.339844 C 408.886719 459.433594 406.945312 459.480469 405 459.480469 C 403.054688 459.480469 401.113281 459.433594 399.171875 459.339844 C 397.230469 459.242188 395.289062 459.101562 393.355469 458.910156 C 391.421875 458.71875 389.492188 458.480469 387.570312 458.195312 C 385.644531 457.910156 383.730469 457.578125 381.824219 457.199219 C 379.917969 456.820312 378.019531 456.394531 376.132812 455.921875 C 374.246094 455.449219 372.375 454.929688 370.515625 454.367188 C 368.652344 453.800781 366.808594 453.191406 364.976562 452.535156 C 363.148438 451.882812 361.332031 451.183594 359.539062 450.4375 C 357.742188 449.695312 355.964844 448.90625 354.207031 448.074219 C 352.449219 447.242188 350.710938 446.371094 348.996094 445.453125 C 347.285156 444.535156 345.59375 443.578125 343.925781 442.578125 C 342.257812 441.578125 340.613281 440.539062 339 439.460938 C 337.382812 438.378906 335.792969 437.261719 334.230469 436.101562 C 332.667969 434.945312 331.136719 433.75 329.632812 432.515625 C 328.132812 431.28125 326.660156 430.011719 325.21875 428.707031 C 323.777344 427.402344 322.371094 426.058594 320.996094 424.6875 C 319.621094 423.3125 318.28125 421.902344 316.976562 420.460938 C 315.667969 419.023438 314.398438 417.550781 313.167969 416.046875 C 311.933594 414.542969 310.738281 413.011719 309.578125 411.449219 C 308.421875 409.890625 307.300781 408.300781 306.222656 406.683594 C 305.140625 405.066406 304.101562 403.425781 303.101562 401.757812 C 302.101562 400.089844 301.144531 398.398438 300.226562 396.683594 C 299.3125 394.96875 298.4375 393.234375 297.605469 391.476562 C 296.773438 389.71875 295.988281 387.941406 295.242188 386.144531 C 294.5 384.347656 293.800781 382.535156 293.144531 380.703125 C 292.488281 378.875 291.878906 377.027344 291.316406 375.167969 C 290.75 373.304688 290.234375 371.433594 289.761719 369.546875 C 289.289062 367.660156 288.863281 365.765625 288.484375 363.859375 C 288.101562 361.953125 287.769531 360.035156 287.484375 358.113281 C 287.199219 356.191406 286.960938 354.261719 286.773438 352.324219 C 286.582031 350.390625 286.4375 348.453125 286.34375 346.511719 C 286.246094 344.570312 286.199219 342.625 286.199219 340.679688 C 286.199219 338.738281 286.246094 336.792969 286.34375 334.851562 C 286.4375 332.910156 286.582031 330.972656 286.773438 329.035156 C 286.960938 327.101562 287.199219 325.171875 287.484375 323.25 C 287.769531 321.328125 288.101562 319.410156 288.484375 317.503906 C 288.863281 315.597656 289.289062 313.703125 289.761719 311.816406 C 290.234375 309.929688 290.75 308.054688 291.316406 306.195312 C 291.878906 304.335938 292.488281 302.488281 293.144531 300.660156 C 293.800781 298.828125 294.5 297.015625 295.242188 295.21875 C 295.988281 293.421875 296.773438 291.644531 297.605469 289.886719 C 298.4375 288.128906 299.3125 286.394531 300.226562 284.679688 C 301.144531 282.964844 302.101562 281.273438 303.101562 279.605469 C 304.101562 277.9375 305.140625 276.296875 306.222656 274.679688 C 307.300781 273.0625 308.421875 271.472656 309.578125 269.914062 C 310.738281 268.351562 311.933594 266.816406 313.167969 265.316406 C 314.398438 263.8125 315.667969 262.339844 316.976562 260.898438 C 318.28125 259.460938 319.621094 258.050781 320.996094 256.675781 C 322.371094 255.300781 323.777344 253.960938 325.21875 252.65625 C 326.660156 251.351562 328.132812 250.082031 329.632812 248.847656 C 331.136719 247.613281 332.667969 246.417969 334.230469 245.261719 C 335.792969 244.101562 337.382812 242.984375 339 241.902344 C 340.613281 240.824219 342.257812 239.78125 343.925781 238.78125 C 345.59375 237.785156 347.285156 236.824219 348.996094 235.910156 C 350.710938 234.992188 352.449219 234.117188 354.207031 233.289062 C 355.964844 232.457031 357.742188 231.667969 359.539062 230.925781 C 361.332031 230.179688 363.148438 229.480469 364.976562 228.824219 C 366.808594 228.171875 368.652344 227.5625 370.515625 226.996094 C 372.375 226.433594 374.246094 225.914062 376.132812 225.441406 C 378.019531 224.96875 379.917969 224.542969 381.824219 224.164062 C 383.730469 223.785156 385.644531 223.453125 387.570312 223.167969 C 389.492188 222.882812 391.421875 222.644531 393.355469 222.453125 C 395.289062 222.261719 397.230469 222.121094 399.171875 222.023438 C 401.113281 221.929688 403.054688 221.882812 405 221.882812 C 406.945312 221.882812 408.886719 221.929688 410.828125 222.023438 C 412.769531 222.121094 414.710938 222.261719 416.644531 222.453125 C 418.578125 222.644531 420.507812 222.882812 422.429688 223.167969 C 424.355469 223.453125 426.269531 223.785156 428.175781 224.164062 C 430.082031 224.542969 431.980469 224.96875 433.867188 225.441406 C 435.753906 225.914062 437.625 226.433594 439.484375 226.996094 C 441.347656 227.5625 443.191406 228.171875 445.023438 228.824219 C 446.851562 229.480469 448.667969 230.179688 450.460938 230.925781 C 452.257812 231.667969 454.035156 232.457031 455.792969 233.289062 C 457.550781 234.117188 459.289062 234.992188 461 235.910156 C 462.714844 236.824219 464.40625 237.785156 466.074219 238.78125 C 467.742188 239.78125 469.386719 240.824219 471 241.902344 C 472.617188 242.984375 474.207031 244.101562 475.769531 245.261719 C 477.332031 246.417969 478.863281 247.613281 480.367188 248.847656 C 481.867188 250.082031 483.339844 251.351562 484.78125 252.65625 C 486.222656 253.960938 487.628906 255.300781 489.003906 256.675781 C 490.378906 258.050781 491.71875 259.460938 493.023438 260.898438 C 494.332031 262.339844 495.601562 263.8125 496.832031 265.316406 C 498.066406 266.816406 499.261719 268.351562 500.421875 269.914062 C 501.578125 271.472656 502.699219 273.0625 503.777344 274.679688 C 504.859375 276.296875 505.898438 277.9375 506.898438 279.605469 C 507.898438 281.273438 508.855469 282.964844 509.773438 284.679688 C 510.6875 286.394531 511.5625 288.128906 512.394531 289.886719 C 513.226562 291.644531 514.011719 293.421875 514.757812 295.21875 C 515.5 297.015625 516.199219 298.828125 516.855469 300.660156 C 517.511719 302.488281 518.121094 304.335938 518.683594 306.195312 C 519.25 308.054688 519.765625 309.929688 520.238281 311.816406 C 520.710938 313.703125 521.136719 315.597656 521.515625 317.503906 C 521.898438 319.410156 522.230469 321.328125 522.515625 323.25 C 522.800781 325.171875 523.039062 327.101562 523.226562 329.035156 C 523.417969 330.972656 523.5625 332.910156 523.65625 334.851562 C 523.753906 336.792969 523.800781 338.738281 523.800781 340.679688 Z M 523.800781 340.679688 " fill-opacity="1" fill-rule="nonzero"/><g clip-path="url(#ec7382b8be)"><path fill="#0a2c5c" d="M 629.316406 649.777344 C 626.398438 652.691406 623.484375 655.5 620.460938 658.09375 C 616.894531 661.332031 613.222656 664.464844 609.445312 667.597656 C 608.363281 668.460938 607.175781 669.324219 605.988281 670.296875 C 603.070312 672.671875 600.046875 674.941406 596.914062 677.210938 C 593.242188 680.015625 589.464844 682.609375 585.574219 685.203125 C 582.335938 687.46875 579.097656 689.519531 575.855469 691.464844 C 573.265625 693.191406 570.5625 694.8125 567.757812 696.324219 C 564.40625 698.378906 560.953125 700.320312 557.496094 702.15625 C 552.960938 704.535156 548.425781 706.910156 543.671875 709.070312 C 537.730469 711.984375 531.683594 714.578125 525.527344 716.953125 C 522.070312 718.464844 518.507812 719.761719 514.945312 721.058594 C 510.085938 722.894531 505.117188 724.511719 500.039062 726.023438 C 495.394531 727.539062 490.644531 728.832031 485.890625 730.019531 C 482.976562 730.886719 480.058594 731.535156 477.035156 732.074219 C 474.550781 732.828125 471.960938 733.371094 469.367188 733.800781 C 462.996094 735.207031 456.625 736.285156 450.035156 737.042969 C 445.933594 737.6875 441.828125 738.230469 437.617188 738.660156 C 426.925781 739.742188 416.015625 740.28125 405 740.28125 C 393.984375 740.28125 383.074219 739.742188 372.382812 738.660156 C 368.171875 738.230469 364.066406 737.6875 359.964844 737.042969 C 353.375 736.285156 347.003906 735.207031 340.632812 733.800781 C 338.039062 733.371094 335.449219 732.828125 332.964844 732.074219 C 329.941406 731.535156 327.023438 730.886719 324.109375 730.019531 C 319.355469 728.832031 314.605469 727.539062 309.960938 726.023438 C 304.882812 724.511719 299.914062 722.894531 295.054688 721.058594 C 291.492188 719.761719 287.929688 718.464844 284.472656 716.953125 C 278.316406 714.578125 272.269531 711.984375 266.328125 709.070312 C 261.574219 706.910156 257.039062 704.535156 252.503906 702.15625 C 249.046875 700.320312 245.699219 698.378906 242.351562 696.324219 C 239.542969 694.8125 236.84375 693.191406 234.144531 691.464844 C 230.902344 689.519531 227.664062 687.46875 224.425781 685.203125 C 220.535156 682.609375 216.757812 680.015625 213.082031 677.210938 C 209.953125 674.941406 206.929688 672.671875 204.011719 670.296875 C 202.824219 669.324219 201.636719 668.460938 200.554688 667.597656 C 196.777344 664.464844 193.105469 661.332031 189.539062 658.09375 C 186.515625 655.5 183.601562 652.691406 180.683594 649.777344 C 195.371094 560.351562 278.207031 502.679688 405 502.679688 C 531.792969 502.679688 614.628906 560.351562 629.316406 649.777344 Z M 629.316406 649.777344 " fill-opacity="1" fill-rule="nonzero"/></g></svg>