<svg xmlns="http://www.w3.org/2000/svg" xmlns:xlink="http://www.w3.org/1999/xlink" width="1080" zoomAndPan="magnify" viewBox="0 0 810 809.999993" height="1080" preserveAspectRatio="xMidYMid meet" version="1.0"><defs><clipPath id="98e2e60173"><path d="M 0 43 L 582 43 L 582 655 L 0 655 Z M 0 43 " clip-rule="nonzero"/></clipPath><clipPath id="4631d576f1"><path d="M 163.445312 660.75 L -62.625 354.070312 L 358.757812 43.441406 L 584.828125 350.121094 Z M 163.445312 660.75 " clip-rule="nonzero"/></clipPath><clipPath id="eca3610b00"><path d="M 89 419 L 364 419 L 364 530 L 89 530 Z M 89 419 " clip-rule="nonzero"/></clipPath><clipPath id="067e099fad"><path d="M 163.445312 617.75 L -62.625 311.070312 L 358.757812 0.441406 L 584.828125 307.121094 Z M 163.445312 617.75 " clip-rule="nonzero"/></clipPath><clipPath id="72a80d3e77"><path d="M -62.792969 310.84375 L 163.28125 617.523438 L 584.664062 306.894531 L 358.589844 0.214844 Z M -62.792969 310.84375 " clip-rule="nonzero"/></clipPath><clipPath id="f1f4af407b"><path d="M 130 172 L 390 172 L 390 331 L 130 331 Z M 130 172 " clip-rule="nonzero"/></clipPath><clipPath id="9868f89b35"><path d="M 163.445312 617.75 L -62.625 311.070312 L 358.757812 0.441406 L 584.828125 307.121094 Z M 163.445312 617.75 " clip-rule="nonzero"/></clipPath><clipPath id="e8eab7f585"><path d="M -62.792969 310.84375 L 163.28125 617.523438 L 584.664062 306.894531 L 358.589844 0.214844 Z M -62.792969 310.84375 " clip-rule="nonzero"/></clipPath><clipPath id="95635e7b4f"><path d="M 285 17 L 460 17 L 460 237 L 285 237 Z M 285 17 " clip-rule="nonzero"/></clipPath><clipPath id="9751f9795f"><path d="M 163.445312 617.75 L -62.625 311.070312 L 358.757812 0.441406 L 584.828125 307.121094 Z M 163.445312 617.75 " clip-rule="nonzero"/></clipPath><clipPath id="84d7d17790"><path d="M -62.792969 310.84375 L 163.28125 617.523438 L 584.664062 306.894531 L 358.589844 0.214844 Z M -62.792969 310.84375 " clip-rule="nonzero"/></clipPath><clipPath id="f295e0eef8"><rect x="0" width="582" y="0" height="612"/></clipPath></defs><g clip-path="url(#98e2e60173)"><g clip-path="url(#4631d576f1)"><g transform="matrix(1, 0, 0, 1, 0, 43)"><g clip-path="url(#f295e0eef8)"><g clip-path="url(#eca3610b00)"><g clip-path="url(#067e099fad)"><g clip-path="url(#72a80d3e77)"><path fill="#e31e24" d="M 347.042969 421.117188 C 343.527344 419.714844 339.835938 419.710938 336.066406 419.769531 C 261.863281 420.765625 187.558594 421.773438 113.230469 422.859375 C 95.582031 423.039062 88.65625 430.628906 89.957031 448.472656 C 91.476562 467.925781 93.355469 487.457031 95.035156 506.96875 C 96.742188 526.765625 104.867188 532.867188 124.511719 528.246094 C 160.460938 519.832031 196.320312 511.296875 232.199219 502.695312 C 268.578125 493.957031 304.964844 485.222656 341.375 476.351562 C 361.949219 471.28125 370.453125 444.261719 356.875 427.480469 C 354.285156 424.304688 351.023438 422.171875 347.042969 421.117188 Z M 347.042969 421.117188 " fill-opacity="1" fill-rule="evenodd"/></g></g></g><g clip-path="url(#f1f4af407b)"><g clip-path="url(#9868f89b35)"><g clip-path="url(#e8eab7f585)"><path fill="#e31e24" d="M 151.105469 273.789062 C 219.613281 292.234375 287.96875 310.789062 356.53125 329.214844 C 371.851562 333.335938 379.886719 328.074219 387.046875 310.21875 C 392.675781 296.019531 390.027344 287.9375 376.53125 280.53125 C 314.707031 245.902344 252.78125 211.359375 190.859375 176.921875 C 175.0625 168.128906 164.886719 171.878906 157.601562 188.25 C 150.578125 203.832031 143.246094 219.160156 136.136719 234.621094 C 135.519531 235.917969 134.949219 237.183594 134.371094 238.460938 C 125.71875 258.140625 130.375 267.902344 151.105469 273.789062 Z M 151.105469 273.789062 " fill-opacity="1" fill-rule="evenodd"/></g></g></g><g clip-path="url(#95635e7b4f)"><g clip-path="url(#9751f9795f)"><g clip-path="url(#84d7d17790)"><path fill="#e31e24" d="M 286.835938 58.269531 C 283.992188 66.46875 286.890625 73.105469 292.121094 79.472656 C 330.460938 124.996094 368.59375 170.742188 406.835938 216.386719 C 410.148438 220.296875 413.183594 224.414062 416.578125 228.203125 C 426.074219 239.105469 435.585938 239.296875 451.320312 229.140625 C 459.914062 223.476562 462.398438 213.722656 457.316406 202.644531 C 442.941406 171.820312 428.296875 141.121094 413.84375 110.28125 C 402.191406 85.363281 390.574219 60.417969 378.921875 35.5 C 370.015625 16.605469 361.816406 13.695312 343.371094 22.882812 C 328.464844 30.480469 313.566406 38.082031 298.601562 45.597656 C 293.089844 48.449219 288.644531 52.101562 286.835938 58.269531 Z M 286.835938 58.269531 " fill-opacity="1" fill-rule="evenodd"/></g></g></g></g></g></g></g></svg>