<svg xmlns="http://www.w3.org/2000/svg" xmlns:xlink="http://www.w3.org/1999/xlink" width="1080" zoomAndPan="magnify" viewBox="0 0 810 809.999993" height="1080" preserveAspectRatio="xMidYMid meet" version="1.0"><defs><clipPath id="7379861bb8"><path d="M 298 334 L 431 334 L 431 612 L 298 612 Z M 298 334 " clip-rule="nonzero"/></clipPath><clipPath id="0c11f6521e"><path d="M 593.984375 689.261719 L 227.851562 583.871094 L 372.664062 80.796875 L 738.796875 186.1875 Z M 593.984375 689.261719 " clip-rule="nonzero"/></clipPath><clipPath id="f910fc686f"><path d="M 593.984375 689.261719 L 227.851562 583.871094 L 372.664062 80.796875 L 738.796875 186.1875 Z M 593.984375 689.261719 " clip-rule="nonzero"/></clipPath><clipPath id="8b39e903d3"><path d="M 425 259 L 642 259 L 642 490 L 425 490 Z M 425 259 " clip-rule="nonzero"/></clipPath><clipPath id="49e8722ea8"><path d="M 593.984375 689.261719 L 227.851562 583.871094 L 372.664062 80.796875 L 738.796875 186.1875 Z M 593.984375 689.261719 " clip-rule="nonzero"/></clipPath><clipPath id="ed5057f9c2"><path d="M 593.984375 689.261719 L 227.851562 583.871094 L 372.664062 80.796875 L 738.796875 186.1875 Z M 593.984375 689.261719 " clip-rule="nonzero"/></clipPath><clipPath id="16fd873dc0"><path d="M 490 163 L 724 163 L 724 278 L 490 278 Z M 490 163 " clip-rule="nonzero"/></clipPath><clipPath id="1ec4bc6bdc"><path d="M 593.984375 689.261719 L 227.851562 583.871094 L 372.664062 80.796875 L 738.796875 186.1875 Z M 593.984375 689.261719 " clip-rule="nonzero"/></clipPath><clipPath id="a2171579ce"><path d="M 593.984375 689.261719 L 227.851562 583.871094 L 372.664062 80.796875 L 738.796875 186.1875 Z M 593.984375 689.261719 " clip-rule="nonzero"/></clipPath></defs><g clip-path="url(#7379861bb8)"><g clip-path="url(#0c11f6521e)"><g clip-path="url(#f910fc686f)"><path fill="#e31e24" d="M 348.148438 343.300781 C 350.683594 346.109375 351.96875 349.570312 353.226562 353.125 C 378.082031 423.050781 402.960938 493.074219 427.777344 563.144531 C 433.738281 579.753906 429.03125 588.886719 411.847656 593.867188 C 393.082031 599.207031 374.113281 604.234375 355.230469 609.4375 C 336.078125 614.71875 327.535156 609.21875 325.035156 589.191406 C 320.433594 552.5625 315.972656 515.96875 311.570312 479.335938 C 307.117188 442.191406 302.664062 405.035156 298.328125 367.8125 C 295.929688 346.757812 318.308594 329.394531 338.765625 336.292969 C 342.640625 337.617188 345.773438 339.933594 348.148438 343.300781 Z M 348.148438 343.300781 " fill-opacity="1" fill-rule="evenodd"/></g></g></g><g clip-path="url(#8b39e903d3)"><g clip-path="url(#49e8722ea8)"><g clip-path="url(#ed5057f9c2)"><path fill="#e31e24" d="M 554.386719 475.820312 C 513.285156 417.992188 472.128906 360.347656 431.023438 302.464844 C 421.832031 289.53125 423.972656 280.167969 438.226562 267.25 C 449.585938 257.035156 458.085938 256.707031 469.71875 266.789062 C 523.675781 312.722656 577.589844 358.785156 631.402344 404.878906 C 645.136719 416.632812 645.15625 427.480469 632.335938 440 C 620.167969 452 608.34375 464.199219 596.316406 476.242188 C 595.316406 477.269531 594.324219 478.246094 593.332031 479.230469 C 577.882812 494.183594 567.117188 493.210938 554.386719 475.820312 Z M 554.386719 475.820312 " fill-opacity="1" fill-rule="evenodd"/></g></g></g><g clip-path="url(#16fd873dc0)"><g clip-path="url(#1ec4bc6bdc)"><g clip-path="url(#a2171579ce)"><path fill="#e31e24" d="M 709.296875 273.648438 C 702.601562 279.164062 695.371094 278.753906 687.582031 276.058594 C 631.570312 255.929688 575.425781 236.078125 519.332031 216.082031 C 514.515625 214.335938 509.597656 212.917969 504.867188 211.050781 C 491.34375 205.9375 487.859375 197.085938 491.910156 178.800781 C 494.238281 168.777344 502.519531 163.054688 514.671875 163.96875 C 548.574219 166.734375 582.449219 169.800781 616.386719 172.632812 C 643.800781 174.898438 671.230469 177.121094 698.644531 179.386719 C 719.457031 181.171875 725.035156 187.847656 722.832031 208.335938 C 720.886719 224.953125 718.9375 241.566406 717.09375 258.210938 C 716.332031 264.371094 714.457031 269.808594 709.296875 273.648438 Z M 709.296875 273.648438 " fill-opacity="1" fill-rule="evenodd"/></g></g></g></svg>