<svg xmlns="http://www.w3.org/2000/svg" xmlns:xlink="http://www.w3.org/1999/xlink" width="972" zoomAndPan="magnify" viewBox="0 0 729 642.749998" height="857" preserveAspectRatio="xMidYMid meet" version="1.0"><defs><clipPath id="ad0fc87592"><path d="M 0.140625 0 L 728.855469 0 L 728.855469 642.5 L 0.140625 642.5 Z M 0.140625 0 " clip-rule="nonzero"/></clipPath><clipPath id="f899be09ba"><path d="M 244 140 L 448 140 L 448 306 L 244 306 Z M 244 140 " clip-rule="nonzero"/></clipPath><clipPath id="a167cc0391"><path d="M 284.335938 140.078125 L 447.242188 204.261719 L 407.335938 305.550781 L 244.429688 241.371094 Z M 284.335938 140.078125 " clip-rule="nonzero"/></clipPath><clipPath id="41712258b8"><path d="M 0.367188 0 L 203.328125 0 L 203.328125 165.640625 L 0.367188 165.640625 Z M 0.367188 0 " clip-rule="nonzero"/></clipPath><clipPath id="d24c5334a6"><path d="M 40.335938 0.078125 L 203.242188 64.261719 L 163.335938 165.550781 L 0.429688 101.371094 Z M 40.335938 0.078125 " clip-rule="nonzero"/></clipPath><clipPath id="54828598a7"><rect x="0" width="204" y="0" height="166"/></clipPath><clipPath id="2502f96801"><path d="M 463 12 L 718 12 L 718 252 L 463 252 Z M 463 12 " clip-rule="nonzero"/></clipPath><clipPath id="7651110ca0"><path d="M 463.242188 145.230469 L 634.953125 12.796875 L 717.125 119.335938 L 545.414062 251.769531 Z M 463.242188 145.230469 " clip-rule="nonzero"/></clipPath><clipPath id="ee76f96dc8"><path d="M 0.160156 0.714844 L 254.222656 0.714844 L 254.222656 239.902344 L 0.160156 239.902344 Z M 0.160156 0.714844 " clip-rule="nonzero"/></clipPath><clipPath id="898f74f661"><path d="M 0.242188 133.230469 L 171.953125 0.796875 L 254.125 107.335938 L 82.414062 239.769531 Z M 0.242188 133.230469 " clip-rule="nonzero"/></clipPath><clipPath id="3283ae9008"><rect x="0" width="255" y="0" height="240"/></clipPath><clipPath id="37cef5114c"><path d="M 193 351 L 391 351 L 391 532 L 193 532 Z M 193 351 " clip-rule="nonzero"/></clipPath><clipPath id="8d9a9ad4b5"><path d="M 193.546875 445.363281 L 330.835938 351.039062 L 390.035156 437.207031 L 252.75 531.527344 Z M 193.546875 445.363281 " clip-rule="nonzero"/></clipPath><clipPath id="6c0175b0d0"><path d="M 0.507812 0 L 197.230469 0 L 197.230469 180.632812 L 0.507812 180.632812 Z M 0.507812 0 " clip-rule="nonzero"/></clipPath><clipPath id="a109e7c1d3"><path d="M 0.546875 94.363281 L 137.835938 0.0390625 L 197.035156 86.207031 L 59.75 180.527344 Z M 0.546875 94.363281 " clip-rule="nonzero"/></clipPath><clipPath id="18d273cdab"><rect x="0" width="198" y="0" height="181"/></clipPath><clipPath id="2d41bacb85"><path d="M 0.140625 231 L 640 231 L 640 642.351562 L 0.140625 642.351562 Z M 0.140625 231 " clip-rule="nonzero"/></clipPath><clipPath id="c263fd3f83"><path d="M 452 1 L 728.855469 1 L 728.855469 265 L 452 265 Z M 452 1 " clip-rule="nonzero"/></clipPath><clipPath id="3fa13f9027"><rect x="0" width="729" y="0" height="643"/></clipPath></defs><g clip-path="url(#ad0fc87592)"><g transform="matrix(1, 0, 0, 1, 0.000000000000000028, 0.000000000000052962)"><g clip-path="url(#3fa13f9027)"><g clip-path="url(#f899be09ba)"><g clip-path="url(#a167cc0391)"><g transform="matrix(1, 0, 0, 1, 244, 140)"><g clip-path="url(#54828598a7)"><g clip-path="url(#41712258b8)"><g clip-path="url(#d24c5334a6)"><path fill="#00a0e3" d="M 40.335938 0.078125 L 203.351562 64.304688 L 163.445312 165.59375 L 0.429688 101.371094 Z M 40.335938 0.078125 " fill-opacity="1" fill-rule="nonzero"/></g></g></g></g></g></g><g clip-path="url(#2502f96801)"><g clip-path="url(#7651110ca0)"><g transform="matrix(1, 0, 0, 1, 463, 12)"><g clip-path="url(#3283ae9008)"><g clip-path="url(#ee76f96dc8)"><g clip-path="url(#898f74f661)"><path fill="#00a0e3" d="M 0.242188 133.230469 L 172.121094 0.667969 L 254.292969 107.207031 L 82.414062 239.769531 Z M 0.242188 133.230469 " fill-opacity="1" fill-rule="nonzero"/></g></g></g></g></g></g><g clip-path="url(#37cef5114c)"><g clip-path="url(#8d9a9ad4b5)"><g transform="matrix(1, 0, 0, 1, 193, 351)"><g clip-path="url(#18d273cdab)"><g clip-path="url(#6c0175b0d0)"><g clip-path="url(#a109e7c1d3)"><path fill="#00a0e3" d="M 0.546875 94.363281 L 137.875 0.0117188 L 197.074219 86.179688 L 59.75 180.527344 Z M 0.546875 94.363281 " fill-opacity="1" fill-rule="nonzero"/></g></g></g></g></g></g><g clip-path="url(#2d41bacb85)"><path fill="#0a2c5c" d="M 572.882812 642.25 C 609.820312 642.25 639.863281 612.207031 639.863281 575.269531 C 639.863281 572.171875 637.359375 569.667969 634.261719 569.667969 L 615.875 569.667969 L 615.875 477.171875 C 615.875 474.074219 613.367188 471.570312 610.269531 471.570312 C 607.171875 471.570312 604.667969 474.074219 604.667969 477.171875 L 604.667969 569.667969 L 47.539062 569.667969 L 47.539062 264.660156 C 47.539062 252.367188 57.53125 242.375 69.820312 242.375 L 200.28125 242.375 C 203.378906 242.375 205.886719 239.871094 205.886719 236.773438 C 205.886719 233.675781 203.378906 231.167969 200.28125 231.167969 L 69.820312 231.167969 C 51.359375 231.167969 36.332031 246.195312 36.332031 264.660156 L 36.332031 569.667969 L 5.9375 569.667969 C 2.839844 569.667969 0.332031 572.171875 0.332031 575.269531 C 0.332031 612.207031 30.375 642.25 67.304688 642.25 Z M 572.882812 642.25 " fill-opacity="1" fill-rule="nonzero"/></g><g clip-path="url(#c263fd3f83)"><path fill="#0a2c5c" d="M 727.609375 115.515625 L 640.96875 3.222656 C 639.339844 1.101562 635.375 0.191406 632.980469 2.074219 L 454.722656 142.757812 C 452.675781 144.359375 451.980469 148.265625 453.804688 150.617188 L 540.542969 262.691406 C 542.371094 265.042969 545.933594 265.671875 548.476562 263.675781 L 572.003906 245.140625 C 572.617188 246.957031 574.398438 248.597656 578.476562 255.554688 C 579.515625 257.328125 581.398438 258.324219 583.3125 258.324219 C 587.636719 258.324219 590.339844 253.617188 588.152344 249.882812 C 586.191406 246.535156 584.066406 243.261719 581.769531 240.078125 C 581.34375 239.488281 580.8125 239.027344 580.230469 238.65625 C 595.261719 226.820312 525.988281 281.382812 726.644531 123.34375 C 728.96875 121.511719 729.285156 117.6875 727.609375 115.515625 Z M 637.632812 126.769531 L 706.472656 124.949219 C 498.738281 288.539062 570.488281 232.035156 554.945312 244.277344 L 573.386719 177.265625 C 574.207031 174.277344 572.445312 171.191406 569.46875 170.371094 C 566.4375 169.574219 563.40625 171.300781 562.574219 174.289062 L 542.570312 246.996094 L 469.925781 153.136719 L 605.222656 157.414062 C 605.277344 157.414062 605.34375 157.414062 605.398438 157.414062 C 608.039062 157.414062 610.324219 155.574219 610.882812 152.980469 L 639.394531 19.523438 L 711.96875 113.585938 L 637.324219 115.5625 C 629.992188 115.769531 630.082031 126.9375 637.632812 126.769531 Z M 627.726562 20.507812 L 600.902344 146.0625 L 473.722656 142.046875 Z M 627.726562 20.507812 " fill-opacity="1" fill-rule="nonzero"/></g><path fill="#0a2c5c" d="M 186.054688 446.84375 L 245.113281 535.375 C 246.769531 537.859375 250.253906 538.710938 252.925781 536.910156 C 254.082031 536.125 395.09375 440.210938 393.941406 441.058594 C 396.382812 439.265625 396.796875 435.667969 395.316406 433.460938 L 336.367188 344.808594 C 334.886719 342.558594 331.027344 341.464844 328.5 343.167969 L 187.5625 439.0625 C 185.507812 440.433594 184.28125 444.199219 186.054688 446.84375 Z M 333.675781 360.980469 L 379.898438 430.496094 L 326.605469 428.128906 C 318.9375 428.007812 318.878906 439.019531 326.101562 439.328125 L 373.511719 441.425781 L 260.742188 518.035156 L 276.699219 472.804688 C 277.726562 469.894531 276.195312 466.6875 273.273438 465.660156 C 270.394531 464.652344 267.152344 466.152344 266.125 469.085938 L 248.222656 519.84375 L 201.945312 450.472656 C 314.484375 462.011719 299.519531 460.582031 300.699219 460.582031 C 303.171875 460.582031 305.382812 458.949219 306.085938 456.53125 Z M 321.953125 361.171875 L 296.617188 448.925781 L 206.5625 439.6875 Z M 321.953125 361.171875 " fill-opacity="1" fill-rule="nonzero"/><path fill="#0a2c5c" d="M 451.332031 196.671875 C 450.210938 196.238281 284.839844 132.132812 285.964844 132.492188 C 283.207031 131.613281 280.046875 133.300781 279.09375 135.6875 L 238.074219 238.347656 C 236.90625 241.257812 238.347656 244.511719 241.238281 245.648438 L 405.988281 309.871094 C 408.761719 310.964844 412.054688 309.664062 413.222656 306.742188 L 454.460938 204.082031 C 455.425781 201.664062 454.128906 197.75 451.332031 196.671875 Z M 432.789062 201.488281 L 342.015625 231.707031 L 296.53125 148.527344 Z M 404.894531 297.417969 L 250.574219 237.265625 L 285.070312 150.914062 L 334.429688 241.195312 C 335.757812 243.613281 338.601562 244.660156 341.117188 243.820312 L 439.597656 211.035156 Z M 404.894531 297.417969 " fill-opacity="1" fill-rule="nonzero"/><path fill="#0a2c5c" d="M 464.75 517.042969 C 462.144531 519.484375 459.429688 521.816406 456.617188 524.003906 C 454.175781 525.910156 453.738281 529.433594 455.644531 531.875 C 457.578125 534.34375 461.121094 534.726562 463.511719 532.847656 C 466.589844 530.441406 469.566406 527.890625 472.410156 525.230469 C 474.664062 523.117188 474.785156 519.574219 472.671875 517.308594 C 470.550781 515.050781 467.027344 514.933594 464.75 517.042969 Z M 464.75 517.042969 " fill-opacity="1" fill-rule="nonzero"/><path fill="#0a2c5c" d="M 503.648438 394.464844 C 500.703125 395.40625 499.070312 398.558594 500.011719 401.511719 C 501.949219 407.554688 503.121094 414.417969 503.515625 421.890625 C 503.667969 424.878906 506.140625 427.199219 509.109375 427.199219 C 509.207031 427.199219 509.304688 427.199219 509.402344 427.1875 C 512.488281 427.035156 514.863281 424.398438 514.699219 421.300781 C 514.261719 412.871094 512.917969 405.070312 510.695312 398.097656 C 509.753906 395.164062 506.644531 393.542969 503.648438 394.464844 Z M 503.648438 394.464844 " fill-opacity="1" fill-rule="nonzero"/><path fill="#0a2c5c" d="M 497.5625 480.816406 C 494.804688 479.425781 491.433594 480.5 490.019531 483.257812 C 486.804688 489.5625 483.039062 495.613281 478.824219 501.261719 C 476.03125 504.996094 478.785156 510.214844 483.3125 510.214844 C 485.019531 510.214844 486.703125 509.4375 487.800781 507.960938 C 492.382812 501.820312 496.5 495.21875 500.003906 488.359375 C 501.414062 485.601562 500.320312 482.230469 497.5625 480.816406 Z M 497.5625 480.816406 " fill-opacity="1" fill-rule="nonzero"/><path fill="#0a2c5c" d="M 508.757812 466.996094 C 508.878906 466.601562 509 466.195312 509.128906 465.789062 C 511.492188 465.394531 513.867188 464.902344 516.234375 464.292969 C 522.90625 462.5625 521.621094 451.203125 512.195312 453.75 C 512.828125 450.652344 513.355469 447.554688 513.769531 444.460938 C 514.175781 441.382812 512.019531 438.570312 508.953125 438.15625 C 505.914062 437.761719 503.066406 439.894531 502.652344 442.972656 C 502.105469 447.152344 501.316406 451.34375 500.308594 455.503906 C 497.65625 455.652344 494.617188 455.59375 493.171875 455.503906 C 485.777344 454.847656 485.085938 466.265625 492.539062 466.6875 C 494.75 466.816406 497.179688 466.832031 498 466.796875 C 499.507812 472.222656 507.089844 472.285156 508.757812 466.996094 Z M 508.757812 466.996094 " fill-opacity="1" fill-rule="nonzero"/><path fill="#0a2c5c" d="M 588.707031 387.40625 C 590.953125 387.40625 593.074219 386.046875 593.941406 383.824219 C 596.675781 376.722656 599.007812 369.402344 600.847656 362.046875 C 601.589844 359.046875 599.773438 356.003906 596.765625 355.25 C 593.722656 354.527344 590.710938 356.320312 589.96875 359.332031 C 588.25 366.238281 586.058594 373.109375 583.476562 379.777344 C 582.054688 383.460938 584.800781 387.40625 588.707031 387.40625 Z M 588.707031 387.40625 " fill-opacity="1" fill-rule="nonzero"/><path fill="#0a2c5c" d="M 449.242188 439.425781 C 447.09375 441.644531 447.148438 445.191406 449.371094 447.347656 C 455.214844 453.019531 461.882812 457.570312 469.160156 460.875 C 472.042969 462.171875 475.320312 460.871094 476.582031 458.097656 C 477.859375 455.273438 476.613281 451.957031 473.800781 450.675781 C 467.695312 447.894531 462.089844 444.066406 457.164062 439.292969 C 454.953125 437.148438 451.40625 437.203125 449.242188 439.425781 Z M 449.242188 439.425781 " fill-opacity="1" fill-rule="nonzero"/><path fill="#0a2c5c" d="M 453.027344 362.867188 C 445.109375 365.710938 438.308594 371.550781 433.941406 380.179688 C 432.539062 382.9375 433.65625 386.308594 436.414062 387.710938 C 439.214844 389.109375 442.558594 387.976562 443.945312 385.238281 C 446.730469 379.71875 451.09375 375.457031 456.816406 373.417969 C 459.726562 372.378906 461.234375 369.160156 460.195312 366.25 C 459.15625 363.335938 455.960938 361.835938 453.027344 362.867188 Z M 453.027344 362.867188 " fill-opacity="1" fill-rule="nonzero"/><path fill="#0a2c5c" d="M 440.289062 403.996094 C 440.144531 400.898438 437.421875 398.730469 434.453125 398.621094 C 431.355469 398.753906 428.960938 401.371094 429.082031 404.457031 C 429.402344 412.058594 431.289062 419.917969 435.242188 427.976562 C 436.214844 429.96875 438.207031 431.117188 440.277344 431.117188 C 444.402344 431.117188 447.132812 426.785156 445.3125 423.050781 C 443.910156 420.183594 442.773438 417.230469 441.917969 414.230469 C 440.976562 410.945312 440.429688 407.5 440.289062 403.996094 Z M 440.289062 403.996094 " fill-opacity="1" fill-rule="nonzero"/><path fill="#0a2c5c" d="M 478.417969 362.964844 C 475.484375 362.011719 472.3125 363.609375 471.347656 366.554688 C 470.398438 369.5 471.996094 372.664062 474.9375 373.625 C 489.085938 378.222656 489.320312 386.046875 494.902344 386.046875 C 499.65625 386.046875 502.277344 380.425781 499.160156 376.800781 C 499.160156 376.800781 491.816406 367.347656 478.417969 362.964844 Z M 478.417969 362.964844 " fill-opacity="1" fill-rule="nonzero"/><path fill="#0a2c5c" d="M 538.058594 455.359375 C 544.960938 451.421875 551.246094 446.605469 556.839844 441.363281 C 559.09375 439.238281 559.214844 435.691406 557.101562 433.4375 C 554.988281 431.171875 551.441406 431.074219 549.175781 433.175781 C 543.527344 438.476562 538.03125 442.457031 532.496094 445.621094 C 527.539062 448.472656 529.527344 456.09375 535.277344 456.09375 C 536.230469 456.09375 537.179688 455.851562 538.058594 455.359375 Z M 538.058594 455.359375 " fill-opacity="1" fill-rule="nonzero"/><path fill="#0a2c5c" d="M 574.492188 399.246094 C 570.921875 405.847656 567.09375 411.933594 563.109375 417.347656 C 561.28125 419.84375 561.816406 423.347656 564.3125 425.1875 C 566.761719 426.988281 570.285156 426.511719 572.148438 423.980469 C 576.429688 418.160156 580.53125 411.636719 584.34375 404.585938 C 585.820312 401.863281 584.800781 398.457031 582.085938 396.992188 C 579.363281 395.527344 575.957031 396.523438 574.492188 399.246094 Z M 574.492188 399.246094 " fill-opacity="1" fill-rule="nonzero"/><path fill="#0a2c5c" d="M 590.929688 268.007812 C 588.007812 269.039062 586.476562 272.246094 587.503906 275.15625 C 589.804688 281.679688 591.597656 288.585938 592.835938 295.6875 C 593.304688 298.414062 595.667969 300.328125 598.339844 300.328125 C 601.835938 300.328125 604.46875 297.183594 603.867188 293.761719 C 602.53125 286.046875 600.582031 278.539062 598.078125 271.433594 C 597.046875 268.492188 593.789062 266.96875 590.929688 268.007812 Z M 590.929688 268.007812 " fill-opacity="1" fill-rule="nonzero"/><path fill="#0a2c5c" d="M 599.378906 344.492188 C 602.183594 344.492188 604.601562 342.390625 604.941406 339.53125 C 606.421875 326.679688 606.03125 317.777344 606.054688 316.65625 C 605.894531 309.105469 594.691406 309.558594 594.847656 316.878906 C 594.824219 318.003906 595.195312 326.386719 593.796875 338.242188 C 593.425781 341.511719 595.964844 344.492188 599.378906 344.492188 Z M 599.378906 344.492188 " fill-opacity="1" fill-rule="nonzero"/><path fill="#0a2c5c" d="M 207.308594 361.597656 C 207.539062 375.179688 210.449219 384.886719 210.570312 385.292969 C 211.304688 387.710938 213.523438 389.265625 215.921875 389.265625 C 219.695312 389.265625 222.371094 385.621094 221.296875 382.042969 C 221.273438 381.953125 218.714844 373.328125 218.515625 361.398438 C 218.460938 358.347656 215.964844 355.894531 212.914062 355.894531 C 212.878906 355.894531 212.847656 355.894531 212.8125 355.894531 C 209.726562 355.949219 207.253906 358.5 207.308594 361.597656 Z M 207.308594 361.597656 " fill-opacity="1" fill-rule="nonzero"/><path fill="#0a2c5c" d="M 220.78125 340.648438 C 222.488281 333.808594 225.203125 327.460938 228.835938 321.78125 C 230.5 319.164062 229.734375 315.707031 227.128906 314.03125 C 224.523438 312.390625 221.054688 313.132812 219.378906 315.738281 C 215.101562 322.449219 211.917969 329.914062 209.902344 337.914062 C 209.15625 340.921875 210.976562 343.964844 213.972656 344.71875 C 217.105469 345.464844 220.039062 343.5625 220.78125 340.648438 Z M 220.78125 340.648438 " fill-opacity="1" fill-rule="nonzero"/><path fill="#0a2c5c" d="M 246.152344 303.875 L 260.074219 293.707031 C 262.566406 291.890625 263.117188 288.378906 261.289062 285.882812 C 259.460938 283.375 255.945312 282.828125 253.460938 284.667969 C 236.132812 297.3125 237.199219 296.511719 235.546875 297.84375 C 231.453125 301.15625 233.808594 307.804688 239.070312 307.804688 C 241.71875 307.804688 242.503906 306.449219 246.152344 303.875 Z M 246.152344 303.875 " fill-opacity="1" fill-rule="nonzero"/><path fill="#0a2c5c" d="M 470.472656 68.738281 C 469.914062 65.675781 466.972656 63.726562 463.960938 64.21875 C 456.210938 65.621094 448.671875 67.457031 441.535156 69.667969 C 438.582031 70.589844 436.929688 73.730469 437.847656 76.683594 C 438.773438 79.664062 441.945312 81.289062 444.863281 80.375 C 451.5625 78.292969 458.652344 76.574219 465.953125 75.25 C 468.996094 74.691406 471.019531 71.78125 470.472656 68.738281 Z M 470.472656 68.738281 " fill-opacity="1" fill-rule="nonzero"/><path fill="#0a2c5c" d="M 377.683594 129.253906 C 377.726562 129.175781 381.199219 121.953125 389.996094 112.769531 C 392.132812 110.535156 392.054688 106.992188 389.820312 104.84375 C 387.589844 102.710938 384.042969 102.789062 381.898438 105.019531 C 371.707031 115.660156 367.703125 124.140625 367.539062 124.503906 C 366.234375 127.304688 367.441406 130.621094 370.242188 131.933594 C 372.980469 133.226562 376.355469 132.0625 377.683594 129.253906 Z M 377.683594 129.253906 " fill-opacity="1" fill-rule="nonzero"/><path fill="#0a2c5c" d="M 424.757812 88.1875 C 427.546875 86.863281 428.742188 83.515625 427.40625 80.722656 C 426.082031 77.933594 422.710938 76.738281 419.941406 78.074219 C 412.773438 81.480469 405.976562 85.417969 399.761719 89.785156 C 395.257812 92.945312 397.566406 99.976562 402.976562 99.976562 C 406.886719 99.976562 407.640625 96.351562 424.757812 88.1875 Z M 424.757812 88.1875 " fill-opacity="1" fill-rule="nonzero"/></g></g></g></svg>